<mxfile host="Electron" agent="Mozilla/5.0 (Windows NT 10.0; Win64; x64) AppleWebKit/537.36 (KHTML, like Gecko) draw.io/26.0.9 Chrome/128.0.6613.186 Electron/32.2.5 Safari/537.36" version="26.0.9">
  <diagram name="Page 1" id="Page_1">
    <mxGraphModel dx="953" dy="555" grid="1" gridSize="12" guides="1" tooltips="1" connect="1" arrows="1" fold="1" page="1" pageScale="1" pageWidth="1100" pageHeight="850" math="0" shadow="0">
      <root>
        <mxCell id="0" />
        <mxCell id="1" parent="0" />
        <UserObject label="" tags="Background" id="72">
          <mxCell style="vsdxID=5;edgeStyle=none;startArrow=none;endArrow=block;startSize=5;endSize=5;strokeColor=#5E5E5E;spacingTop=-3;spacingBottom=-3;spacingLeft=-3;spacingRight=-3;verticalAlign=middle;html=1;labelBackgroundColor=none;rounded=1;" parent="1" edge="1">
            <mxGeometry relative="1" as="geometry">
              <mxPoint as="offset" />
              <Array as="points" />
              <mxPoint x="555" y="64" as="sourcePoint" />
              <mxPoint x="555" y="88" as="targetPoint" />
            </mxGeometry>
          </mxCell>
        </UserObject>
        <UserObject label="" tags="Background" id="69">
          <mxCell style="vsdxID=69;fillColor=none;gradientColor=none;fillOpacity=0;strokeColor=none;strokeWidth=0;spacingTop=-3;spacingBottom=-3;spacingLeft=-3;spacingRight=-3;points=[[0,0.5,0],[1,0.5,0],[0.5,1,0],[0.5,0,0]];labelBackgroundColor=none;rounded=0;html=1;whiteSpace=wrap;" parent="1" vertex="1">
            <mxGeometry x="36" y="768" width="346" height="29" as="geometry" />
          </mxCell>
        </UserObject>
        <mxCell id="70" style="vsdxID=70;fillColor=#ffffff;gradientColor=none;fillOpacity=0;shape=stencil(pZFNDsIgEIVPM1syQIxhXesFPAERFCJCQ6l/p5d2XKCJG93NvPe9MHmA7EanBwsCx5LTyV69KQ7kBoTw0dnsS51A9iC7Q8r2mNMUDe2DrqTARbGGMnymBeq83/mHJQ2Z5OsVGZQ8p8v84u3lk3Vvty2BwccG5IgM+R+0Ukx9D+DP7NsVdViaoc58CFRs6382WSX6Bdk/AQ==);strokeColor=none;strokeWidth=0;spacingTop=-3;spacingBottom=-3;spacingLeft=-3;spacingRight=-3;points=[[0,0.5,0],[1,0.5,0],[0.5,1,0],[0.5,0,0]];labelBackgroundColor=none;rounded=1;html=1;whiteSpace=wrap;" parent="69" vertex="1">
          <mxGeometry width="346" height="29" as="geometry" />
        </mxCell>
        <mxCell id="-AC0HH4Vd6_QIRDWCGgm-108" value="&lt;div style=&quot;&quot;&gt;&lt;p style=&quot;margin: 0px; text-indent: 0px; vertical-align: top; direction: ltr;&quot;&gt;&lt;font&gt;&lt;font style=&quot;color: rgb(51, 51, 51); direction: ltr; letter-spacing: 0px; line-height: 100%; opacity: 1;&quot;&gt;&lt;b style=&quot;&quot;&gt;Crisis&lt;br&gt;&lt;/b&gt;&lt;/font&gt;&lt;font style=&quot;color: rgb(51, 51, 51); direction: ltr; letter-spacing: 0px; line-height: 100%; opacity: 1;&quot;&gt;• Highly Stressful&lt;br&gt;• Short-Term&lt;br&gt;• Has intense pressure to be resolved now&lt;/font&gt;&lt;/font&gt;&lt;/p&gt;&lt;/div&gt;" style="rounded=1;whiteSpace=wrap;html=1;strokeWidth=2;strokeColor=#808080;align=left;spacing=7;fontFamily=Helvetica;spacingLeft=5;" parent="1" vertex="1">
          <mxGeometry x="25" y="80" width="325" height="64" as="geometry" />
        </mxCell>
        <mxCell id="-AC0HH4Vd6_QIRDWCGgm-109" value="&lt;div style=&quot;font-size: 1px&quot;&gt;&lt;p style=&quot;margin: 0px; text-indent: 0px; vertical-align: top; direction: ltr;&quot;&gt;&lt;font face=&quot;Helvetica&quot;&gt;&lt;font style=&quot;color: rgb(51, 51, 51); direction: ltr; letter-spacing: 0px; line-height: 100%; opacity: 1; font-size: 12px;&quot;&gt;&lt;b style=&quot;&quot;&gt;Use Crisis Survival Skills when&lt;/b&gt;&lt;/font&gt;&lt;font style=&quot;color: rgb(51, 51, 51); direction: ltr; letter-spacing: 0px; line-height: 100%; opacity: 1; font-size: 12px;&quot;&gt;&lt;br&gt;1. Pain is intense&lt;br&gt;2. You want to act on your emotions -- probably making things worse.&lt;br&gt;3. Emotions threaten to overwhelm -- you want to stay skillful. &lt;br&gt;4. You are already overwhelmed, but demands must be met.&lt;br&gt;5. Emotions are extreme, the problem(s) cannot be solved quickly.&lt;/font&gt;&lt;/font&gt;&lt;/p&gt;&lt;/div&gt;" style="rounded=1;whiteSpace=wrap;html=1;strokeWidth=2;strokeColor=#808080;align=left;spacingTop=0;spacing=7;spacingBottom=0;spacingLeft=5;" parent="1" vertex="1">
          <mxGeometry x="25" y="164" width="388.25" height="92" as="geometry" />
        </mxCell>
        <mxCell id="8sUVVkPSZ1JqGQnIxmPN-148" style="edgeStyle=elbowEdgeStyle;rounded=1;orthogonalLoop=1;jettySize=auto;html=1;entryX=0.5;entryY=0;entryDx=0;entryDy=0;elbow=vertical;strokeColor=#808080;strokeWidth=2;endArrow=block;endFill=1;" parent="1" source="8sUVVkPSZ1JqGQnIxmPN-120" target="8sUVVkPSZ1JqGQnIxmPN-126" edge="1">
          <mxGeometry relative="1" as="geometry" />
        </mxCell>
        <mxCell id="8sUVVkPSZ1JqGQnIxmPN-149" style="edgeStyle=elbowEdgeStyle;rounded=1;orthogonalLoop=1;jettySize=auto;html=1;entryX=0.5;entryY=0;entryDx=0;entryDy=0;elbow=vertical;strokeColor=#808080;strokeWidth=2;endArrow=block;endFill=1;" parent="1" source="8sUVVkPSZ1JqGQnIxmPN-120" target="8sUVVkPSZ1JqGQnIxmPN-127" edge="1">
          <mxGeometry relative="1" as="geometry" />
        </mxCell>
        <mxCell id="8sUVVkPSZ1JqGQnIxmPN-150" style="edgeStyle=elbowEdgeStyle;rounded=1;orthogonalLoop=1;jettySize=auto;html=1;entryX=0.5;entryY=0;entryDx=0;entryDy=0;elbow=vertical;strokeColor=#808080;strokeWidth=2;endArrow=block;endFill=1;" parent="1" source="8sUVVkPSZ1JqGQnIxmPN-120" target="8sUVVkPSZ1JqGQnIxmPN-128" edge="1">
          <mxGeometry relative="1" as="geometry" />
        </mxCell>
        <mxCell id="8sUVVkPSZ1JqGQnIxmPN-151" style="edgeStyle=elbowEdgeStyle;rounded=1;orthogonalLoop=1;jettySize=auto;html=1;entryX=0.5;entryY=0;entryDx=0;entryDy=0;elbow=vertical;strokeColor=#808080;strokeWidth=2;endArrow=block;endFill=1;" parent="1" source="8sUVVkPSZ1JqGQnIxmPN-120" target="8sUVVkPSZ1JqGQnIxmPN-123" edge="1">
          <mxGeometry relative="1" as="geometry" />
        </mxCell>
        <mxCell id="8sUVVkPSZ1JqGQnIxmPN-152" style="edgeStyle=elbowEdgeStyle;rounded=1;orthogonalLoop=1;jettySize=auto;html=1;entryX=0.5;entryY=0;entryDx=0;entryDy=0;elbow=vertical;strokeColor=#808080;strokeWidth=2;endArrow=block;endFill=1;" parent="1" source="8sUVVkPSZ1JqGQnIxmPN-120" target="8sUVVkPSZ1JqGQnIxmPN-125" edge="1">
          <mxGeometry relative="1" as="geometry" />
        </mxCell>
        <mxCell id="8sUVVkPSZ1JqGQnIxmPN-153" style="edgeStyle=elbowEdgeStyle;rounded=1;orthogonalLoop=1;jettySize=auto;html=1;entryX=0.5;entryY=0;entryDx=0;entryDy=0;elbow=vertical;strokeColor=#808080;strokeWidth=2;endArrow=block;endFill=1;" parent="1" source="8sUVVkPSZ1JqGQnIxmPN-120" target="8sUVVkPSZ1JqGQnIxmPN-124" edge="1">
          <mxGeometry relative="1" as="geometry" />
        </mxCell>
        <mxCell id="8sUVVkPSZ1JqGQnIxmPN-154" style="edgeStyle=elbowEdgeStyle;rounded=1;orthogonalLoop=1;jettySize=auto;html=1;entryX=0.5;entryY=0;entryDx=0;entryDy=0;elbow=vertical;strokeColor=#808080;strokeWidth=2;endArrow=block;endFill=1;" parent="1" source="8sUVVkPSZ1JqGQnIxmPN-120" target="8sUVVkPSZ1JqGQnIxmPN-121" edge="1">
          <mxGeometry relative="1" as="geometry" />
        </mxCell>
        <mxCell id="8sUVVkPSZ1JqGQnIxmPN-120" value="Pick a Skill&amp;nbsp; &amp;nbsp;" style="strokeWidth=2;html=1;shape=mxgraph.flowchart.multi-document;whiteSpace=wrap;align=center;fillColor=#e6d0de;strokeColor=#996185;gradientColor=#d5739d;" parent="1" vertex="1">
          <mxGeometry x="510.5" y="378" width="88" height="60" as="geometry" />
        </mxCell>
        <mxCell id="8sUVVkPSZ1JqGQnIxmPN-129" value="End of Crisis" style="strokeWidth=2;html=1;shape=mxgraph.flowchart.terminator;whiteSpace=wrap;fillColor=#ffe6cc;strokeColor=#d79b00;" parent="1" vertex="1">
          <mxGeometry x="504.5" y="757.5" width="100" height="60" as="geometry" />
        </mxCell>
        <mxCell id="8sUVVkPSZ1JqGQnIxmPN-132" style="edgeStyle=orthogonalEdgeStyle;rounded=0;orthogonalLoop=1;jettySize=auto;html=1;exitX=0.5;exitY=1;exitDx=0;exitDy=0;exitPerimeter=0;entryX=0.5;entryY=0;entryDx=0;entryDy=0;entryPerimeter=0;endArrow=block;endFill=1;strokeColor=#808080;strokeWidth=2;" parent="1" source="8sUVVkPSZ1JqGQnIxmPN-131" target="8sUVVkPSZ1JqGQnIxmPN-129" edge="1">
          <mxGeometry relative="1" as="geometry" />
        </mxCell>
        <mxCell id="8sUVVkPSZ1JqGQnIxmPN-136" style="edgeStyle=elbowEdgeStyle;rounded=1;orthogonalLoop=1;jettySize=auto;html=1;entryX=0;entryY=0.5;entryDx=0;entryDy=0;entryPerimeter=0;fontColor=#808080;strokeWidth=2;strokeColor=#808080;endArrow=block;endFill=1;exitX=0;exitY=0.5;exitDx=0;exitDy=0;exitPerimeter=0;curved=0;" parent="1" source="Ncqw7H26rSRKd1QceQgZ-75" target="43" edge="1">
          <mxGeometry relative="1" as="geometry">
            <Array as="points" />
          </mxGeometry>
        </mxCell>
        <mxCell id="8sUVVkPSZ1JqGQnIxmPN-142" style="edgeStyle=elbowEdgeStyle;rounded=1;orthogonalLoop=1;jettySize=auto;html=1;entryX=0.5;entryY=0;entryDx=0;entryDy=0;entryPerimeter=0;endArrow=block;endFill=1;elbow=vertical;exitX=0.5;exitY=1;exitDx=0;exitDy=0;strokeWidth=2;strokeColor=#808080;curved=0;" parent="1" source="8sUVVkPSZ1JqGQnIxmPN-126" target="8sUVVkPSZ1JqGQnIxmPN-131" edge="1">
          <mxGeometry relative="1" as="geometry">
            <Array as="points">
              <mxPoint x="610" y="630" />
            </Array>
          </mxGeometry>
        </mxCell>
        <mxCell id="8sUVVkPSZ1JqGQnIxmPN-131" value="Crisis&lt;div&gt;Resolved?&lt;/div&gt;" style="strokeWidth=2;html=1;shape=mxgraph.flowchart.decision;whiteSpace=wrap;fillColor=#fff2cc;strokeColor=#d6b656;aspect=fixed;spacingTop=-8;" parent="1" vertex="1">
          <mxGeometry x="514.5" y="653" width="80" height="80" as="geometry" />
        </mxCell>
        <mxCell id="8sUVVkPSZ1JqGQnIxmPN-156" style="edgeStyle=orthogonalEdgeStyle;rounded=1;orthogonalLoop=1;jettySize=auto;html=1;entryX=0.5;entryY=0;entryDx=0;entryDy=0;entryPerimeter=0;strokeWidth=2;curved=0;endArrow=block;endFill=1;strokeColor=#808080;" parent="1" source="8sUVVkPSZ1JqGQnIxmPN-117" target="43" edge="1">
          <mxGeometry relative="1" as="geometry" />
        </mxCell>
        <mxCell id="8sUVVkPSZ1JqGQnIxmPN-157" value="Use Other&lt;br&gt;Skills" style="strokeWidth=2;html=1;shape=mxgraph.flowchart.terminator;whiteSpace=wrap;fillColor=#d5e8d4;strokeColor=#82b366;aspect=fixed;" parent="1" vertex="1">
          <mxGeometry x="835" y="124" width="100" height="60" as="geometry" />
        </mxCell>
        <mxCell id="8sUVVkPSZ1JqGQnIxmPN-158" style="edgeStyle=orthogonalEdgeStyle;rounded=0;orthogonalLoop=1;jettySize=auto;html=1;entryX=0;entryY=0.5;entryDx=0;entryDy=0;entryPerimeter=0;strokeColor=#808080;endArrow=block;endFill=1;strokeWidth=2;" parent="1" source="8sUVVkPSZ1JqGQnIxmPN-117" target="8sUVVkPSZ1JqGQnIxmPN-157" edge="1">
          <mxGeometry relative="1" as="geometry" />
        </mxCell>
        <mxCell id="8sUVVkPSZ1JqGQnIxmPN-161" value="&lt;div&gt;&lt;div style=&quot;&quot;&gt;&lt;span style=&quot;font-size: 14.11px;&quot;&gt;&lt;b&gt;Consider calling a helpline&lt;/b&gt;&lt;/span&gt;&lt;/div&gt;&lt;/div&gt;&lt;div style=&quot;&quot;&gt;&lt;span style=&quot;background-color: transparent; font-size: 14.11px;&quot;&gt;•&amp;nbsp;&lt;/span&gt;&lt;span style=&quot;background-color: transparent; font-size: 14.11px;&quot;&gt;findahelpline.com&lt;/span&gt;&lt;/div&gt;&lt;div style=&quot;&quot;&gt;&lt;span style=&quot;background-color: transparent; font-size: 14.11px;&quot;&gt;•&amp;nbsp;&lt;/span&gt;&lt;span style=&quot;background-color: transparent;&quot;&gt;&lt;span style=&quot;font-size: 14.11px;&quot;&gt;en.wikipedia.org/wiki/List_of_suicide_crisis_lines&lt;/span&gt;&lt;/span&gt;&lt;/div&gt;&lt;div style=&quot;&quot;&gt;&lt;span style=&quot;background-color: transparent; font-size: 14.11px;&quot;&gt;•&amp;nbsp;&lt;/span&gt;&lt;span style=&quot;background-color: transparent;&quot;&gt;&lt;span style=&quot;font-size: 14.11px;&quot;&gt;blog.opencounseling.com/suicide-hotlines/&lt;/span&gt;&lt;/span&gt;&lt;/div&gt;" style="rounded=1;whiteSpace=wrap;html=1;absoluteArcSize=1;arcSize=14;strokeWidth=2;align=left;fillColor=#e1d5e7;strokeColor=#9673a6;verticalAlign=top;spacingLeft=6;" parent="1" vertex="1">
          <mxGeometry x="732" y="209.5" width="348" height="150" as="geometry" />
        </mxCell>
        <mxCell id="8sUVVkPSZ1JqGQnIxmPN-162" style="edgeStyle=orthogonalEdgeStyle;rounded=1;orthogonalLoop=1;jettySize=auto;html=1;entryX=0.5;entryY=0;entryDx=0;entryDy=0;entryPerimeter=0;strokeColor=#808080;endArrow=blockThin;endFill=1;curved=0;strokeWidth=2;" parent="1" source="45" target="8sUVVkPSZ1JqGQnIxmPN-120" edge="1">
          <mxGeometry relative="1" as="geometry" />
        </mxCell>
        <mxCell id="8sUVVkPSZ1JqGQnIxmPN-163" style="edgeStyle=orthogonalEdgeStyle;rounded=1;orthogonalLoop=1;jettySize=auto;html=1;entryX=0;entryY=0.5;entryDx=0;entryDy=0;strokeColor=#808080;curved=0;endArrow=block;endFill=1;strokeWidth=2;" parent="1" source="Ncqw7H26rSRKd1QceQgZ-78" target="8sUVVkPSZ1JqGQnIxmPN-161" edge="1">
          <mxGeometry relative="1" as="geometry" />
        </mxCell>
        <mxCell id="8sUVVkPSZ1JqGQnIxmPN-165" style="edgeStyle=orthogonalEdgeStyle;rounded=1;orthogonalLoop=1;jettySize=auto;html=1;entryX=0.5;entryY=0;entryDx=0;entryDy=0;entryPerimeter=0;strokeColor=#808080;curved=0;endArrow=block;endFill=1;strokeWidth=2;" parent="1" source="8sUVVkPSZ1JqGQnIxmPN-116" target="8sUVVkPSZ1JqGQnIxmPN-117" edge="1">
          <mxGeometry relative="1" as="geometry" />
        </mxCell>
        <mxCell id="8sUVVkPSZ1JqGQnIxmPN-116" value="Intense &lt;br&gt;Emotions" style="strokeWidth=2;html=1;shape=mxgraph.flowchart.start_2;whiteSpace=wrap;fillColor=#ffe6cc;strokeColor=#d79b00;aspect=fixed;" parent="1" vertex="1">
          <mxGeometry x="519.5" y="23" width="70" height="70" as="geometry" />
        </mxCell>
        <mxCell id="8sUVVkPSZ1JqGQnIxmPN-117" value="Crisis" style="strokeWidth=2;html=1;shape=mxgraph.flowchart.decision;whiteSpace=wrap;fillColor=#fff2cc;strokeColor=#d6b656;aspect=fixed;" parent="1" vertex="1">
          <mxGeometry x="514.5" y="114" width="80" height="80" as="geometry" />
        </mxCell>
        <mxCell id="8sUVVkPSZ1JqGQnIxmPN-177" value="DBT Crisis Survival Skills" style="text;align=left;html=1;verticalAlign=middle;whiteSpace=wrap;rounded=1;fontStyle=1;fontSize=36;labelBorderColor=none;textShadow=0;labelBackgroundColor=none;fillColor=default;strokeColor=#808080;strokeWidth=2;spacingLeft=7;" parent="1" vertex="1">
          <mxGeometry x="25" y="23" width="458.5" height="37" as="geometry" />
        </mxCell>
        <mxCell id="ejDCWWCetSTVwmPSnASv-72" style="edgeStyle=elbowEdgeStyle;rounded=1;orthogonalLoop=1;jettySize=auto;html=1;entryX=0.5;entryY=0;entryDx=0;entryDy=0;entryPerimeter=0;elbow=vertical;strokeColor=#808080;strokeWidth=2;endArrow=block;endFill=1;curved=0;" parent="1" source="8sUVVkPSZ1JqGQnIxmPN-125" target="8sUVVkPSZ1JqGQnIxmPN-131" edge="1">
          <mxGeometry relative="1" as="geometry" />
        </mxCell>
        <mxCell id="ejDCWWCetSTVwmPSnASv-73" style="edgeStyle=elbowEdgeStyle;rounded=1;orthogonalLoop=1;jettySize=auto;html=1;entryX=0.5;entryY=0;entryDx=0;entryDy=0;entryPerimeter=0;elbow=vertical;strokeColor=#808080;strokeWidth=2;endArrow=block;endFill=1;curved=0;" parent="1" source="8sUVVkPSZ1JqGQnIxmPN-124" target="8sUVVkPSZ1JqGQnIxmPN-131" edge="1">
          <mxGeometry relative="1" as="geometry" />
        </mxCell>
        <mxCell id="ejDCWWCetSTVwmPSnASv-74" style="edgeStyle=elbowEdgeStyle;rounded=1;orthogonalLoop=1;jettySize=auto;html=1;entryX=0.5;entryY=0;entryDx=0;entryDy=0;entryPerimeter=0;elbow=vertical;strokeColor=#808080;strokeWidth=2;endArrow=block;endFill=1;curved=0;" parent="1" source="8sUVVkPSZ1JqGQnIxmPN-121" target="8sUVVkPSZ1JqGQnIxmPN-131" edge="1">
          <mxGeometry relative="1" as="geometry" />
        </mxCell>
        <mxCell id="ejDCWWCetSTVwmPSnASv-75" style="edgeStyle=elbowEdgeStyle;rounded=1;orthogonalLoop=1;jettySize=auto;html=1;entryX=0.5;entryY=0;entryDx=0;entryDy=0;entryPerimeter=0;elbow=vertical;strokeWidth=2;strokeColor=#808080;endArrow=block;endFill=1;curved=0;" parent="1" source="8sUVVkPSZ1JqGQnIxmPN-127" target="8sUVVkPSZ1JqGQnIxmPN-131" edge="1">
          <mxGeometry relative="1" as="geometry" />
        </mxCell>
        <mxCell id="ejDCWWCetSTVwmPSnASv-76" style="edgeStyle=elbowEdgeStyle;rounded=1;orthogonalLoop=1;jettySize=auto;html=1;entryX=0.5;entryY=0;entryDx=0;entryDy=0;entryPerimeter=0;elbow=vertical;strokeWidth=2;strokeColor=#808080;endArrow=block;endFill=1;curved=0;" parent="1" source="8sUVVkPSZ1JqGQnIxmPN-128" target="8sUVVkPSZ1JqGQnIxmPN-131" edge="1">
          <mxGeometry relative="1" as="geometry" />
        </mxCell>
        <mxCell id="ejDCWWCetSTVwmPSnASv-77" style="edgeStyle=elbowEdgeStyle;rounded=1;orthogonalLoop=1;jettySize=auto;html=1;entryX=0.5;entryY=0;entryDx=0;entryDy=0;entryPerimeter=0;elbow=vertical;endArrow=block;endFill=1;strokeColor=#808080;strokeWidth=2;curved=0;" parent="1" source="8sUVVkPSZ1JqGQnIxmPN-123" target="8sUVVkPSZ1JqGQnIxmPN-131" edge="1">
          <mxGeometry relative="1" as="geometry" />
        </mxCell>
        <mxCell id="8sUVVkPSZ1JqGQnIxmPN-121" value="&lt;div&gt;&lt;font style=&quot;direction: ltr; opacity: 1; color: rgb(51, 51, 51);&quot;&gt;&lt;font style=&quot;color: rgb(51, 51, 51); letter-spacing: 0px; text-align: center; font-size: 14.11px; font-family: Arial; direction: ltr; opacity: 1;&quot;&gt;&lt;b&gt;TIP&lt;/b&gt;&lt;/font&gt;&lt;font style=&quot;color: rgb(51, 51, 51); letter-spacing: 0px; text-align: center; font-size: 14.11px; font-family: Arial; direction: ltr; opacity: 1;&quot;&gt;&lt;br&gt;• Cold&amp;nbsp;&lt;/font&gt;&lt;font style=&quot;color: rgb(51, 51, 51); letter-spacing: 0px; text-align: center; font-size: 14.11px; font-family: Arial; direction: ltr; opacity: 1;&quot;&gt;&lt;b&gt;T&lt;/b&gt;&lt;/font&gt;&lt;font style=&quot;color: rgb(51, 51, 51); letter-spacing: 0px; text-align: center; font-size: 14.11px; font-family: Arial; direction: ltr; opacity: 1;&quot;&gt;emp Water on the face&lt;br&gt;&lt;/font&gt;&lt;font style=&quot;text-align: center; direction: ltr; opacity: 1; color: rgb(51, 51, 51);&quot;&gt;&lt;font face=&quot;Arial&quot; color=&quot;#333333&quot;&gt;&lt;span style=&quot;font-size: 14.11px;&quot;&gt;•&amp;nbsp;&lt;/span&gt;&lt;/font&gt;&lt;b style=&quot;color: light-dark(rgb(51, 51, 51), rgb(51, 51, 51)); font-family: Arial; font-size: 14.11px; letter-spacing: 0px;&quot;&gt;I&lt;/b&gt;&lt;/font&gt;&lt;font style=&quot;color: rgb(51, 51, 51); letter-spacing: 0px; text-align: center; font-size: 14.11px; font-family: Arial; direction: ltr; opacity: 1;&quot;&gt;ntense Exercise&lt;br&gt;&lt;/font&gt;&lt;font style=&quot;text-align: center; direction: ltr; opacity: 1; color: rgb(51, 51, 51);&quot;&gt;&lt;font face=&quot;Arial&quot; color=&quot;#333333&quot;&gt;&lt;span style=&quot;font-size: 14.11px;&quot;&gt;•&amp;nbsp;&lt;/span&gt;&lt;/font&gt;&lt;b style=&quot;color: light-dark(rgb(51, 51, 51), rgb(51, 51, 51)); font-family: Arial; font-size: 14.11px; letter-spacing: 0px;&quot;&gt;P&lt;/b&gt;&lt;/font&gt;&lt;font style=&quot;color: rgb(51, 51, 51); letter-spacing: 0px; text-align: center; font-size: 14.11px; font-family: Arial; direction: ltr; opacity: 1;&quot;&gt;aced Breathing&lt;br&gt;&lt;/font&gt;&lt;font style=&quot;text-align: center; direction: ltr; opacity: 1; color: rgb(51, 51, 51);&quot;&gt;&lt;font face=&quot;Arial&quot; color=&quot;#333333&quot;&gt;&lt;span style=&quot;font-size: 14.11px;&quot;&gt;•&amp;nbsp;&lt;/span&gt;&lt;/font&gt;&lt;b style=&quot;color: light-dark(rgb(51, 51, 51), rgb(51, 51, 51)); font-family: Arial; font-size: 14.11px; letter-spacing: 0px;&quot;&gt;P&lt;/b&gt;&lt;/font&gt;&lt;font style=&quot;color: rgb(51, 51, 51); letter-spacing: 0px; text-align: center; font-size: 14.11px; font-family: Arial; direction: ltr; opacity: 1;&quot;&gt;aired Muscle Relaxation&lt;/font&gt;&lt;/font&gt;&lt;/div&gt;" style="rounded=1;whiteSpace=wrap;html=1;absoluteArcSize=1;arcSize=14;strokeWidth=2;align=left;fillColor=#dae8fc;strokeColor=#6c8ebf;verticalAlign=top;spacingLeft=2;fontFamily=Helvetica;fontSize=12;" parent="1" vertex="1">
          <mxGeometry x="36.5" y="480" width="131" height="132" as="geometry" />
        </mxCell>
        <mxCell id="8sUVVkPSZ1JqGQnIxmPN-123" value="&lt;font style=&quot;letter-spacing: 0px; text-align: center; font-size: 14.11px; font-family: Arial; color: rgb(51, 51, 51); direction: ltr; opacity: 1;&quot;&gt;&lt;b&gt;Meditation&lt;br&gt;&lt;/b&gt;&lt;/font&gt;&lt;font style=&quot;letter-spacing: 0px; text-align: center; font-size: 14.11px; font-family: Arial; color: rgb(51, 51, 51); direction: ltr; opacity: 1;&quot;&gt;• Body Scan&lt;br&gt;• Sensory Awareness&lt;/font&gt;&lt;div&gt;&lt;font style=&quot;text-align: center; direction: ltr; opacity: 1; color: rgb(51, 51, 51);&quot;&gt;&lt;font face=&quot;Arial&quot; color=&quot;#333333&quot;&gt;&lt;span style=&quot;font-size: 14.11px;&quot;&gt;• Grounding&lt;/span&gt;&lt;/font&gt;&lt;/font&gt;&lt;/div&gt;" style="rounded=1;whiteSpace=wrap;html=1;absoluteArcSize=1;arcSize=14;strokeWidth=2;align=left;fillColor=#dae8fc;strokeColor=#6c8ebf;verticalAlign=top;spacingLeft=2;fontFamily=Helvetica;fontSize=12;" parent="1" vertex="1">
          <mxGeometry x="941.5" y="480" width="131" height="132" as="geometry" />
        </mxCell>
        <mxCell id="8sUVVkPSZ1JqGQnIxmPN-124" value="&lt;font style=&quot;letter-spacing: 0px; text-align: center; font-size: 14.11px; font-family: Arial; color: rgb(51, 51, 51); direction: ltr; opacity: 1;&quot;&gt;&lt;b&gt;Pros &amp;amp; Cons&lt;br&gt;&lt;/b&gt;&lt;/font&gt;&lt;font style=&quot;letter-spacing: 0px; text-align: center; font-size: 14.11px; font-family: Arial; color: rgb(51, 51, 51); direction: ltr; opacity: 1;&quot;&gt;• What if I act on this emotion?&lt;br&gt;• What if I do not act on this emotion?&lt;/font&gt;" style="rounded=1;whiteSpace=wrap;html=1;absoluteArcSize=1;arcSize=14;strokeWidth=2;align=left;fillColor=#dae8fc;strokeColor=#6c8ebf;verticalAlign=top;spacingLeft=2;fontFamily=Helvetica;fontSize=12;spacingRight=2;" parent="1" vertex="1">
          <mxGeometry x="187.5" y="480" width="131" height="132" as="geometry" />
        </mxCell>
        <mxCell id="8sUVVkPSZ1JqGQnIxmPN-125" value="&lt;div&gt;&lt;font style=&quot;letter-spacing: 0px; color: rgb(51, 51, 51); direction: ltr; opacity: 1;&quot;&gt;&lt;font style=&quot;letter-spacing: 0px; text-align: center; font-size: 14.11px; font-family: Arial; color: rgb(51, 51, 51); direction: ltr; opacity: 1;&quot;&gt;&lt;b&gt;Effective Rethinking&lt;br&gt;&lt;/b&gt;&lt;/font&gt;&lt;font style=&quot;letter-spacing: 0px; text-align: center; font-size: 14.11px; font-family: Arial; color: rgb(51, 51, 51); direction: ltr; opacity: 1;&quot;&gt;&quot;It′s not that important ... so ... relax&quot;&lt;/font&gt;&lt;b&gt;&lt;/b&gt;&lt;/font&gt;&lt;/div&gt;" style="rounded=1;whiteSpace=wrap;html=1;absoluteArcSize=1;arcSize=14;strokeWidth=2;align=left;fillColor=#dae8fc;strokeColor=#6c8ebf;verticalAlign=top;spacingLeft=2;fontFamily=Helvetica;fontSize=12;" parent="1" vertex="1">
          <mxGeometry x="338.5" y="480" width="131" height="132" as="geometry" />
        </mxCell>
        <mxCell id="8sUVVkPSZ1JqGQnIxmPN-127" value="&lt;font style=&quot;direction: ltr; line-height: 14.11px; opacity: 1; color: rgb(51, 51, 51);&quot;&gt;&lt;font style=&quot;line-height: 120%;&quot;&gt;&lt;font style=&quot;color: rgb(51, 51, 51); letter-spacing: 0px; text-align: center; font-family: Arial; direction: ltr; opacity: 1;&quot;&gt;&lt;b&gt;Distract (ACCEPTS)&lt;/b&gt;&lt;/font&gt;&lt;font style=&quot;color: rgb(51, 51, 51); letter-spacing: 0px; text-align: center; font-family: Arial; direction: ltr; line-height: 14.11px; opacity: 1;&quot;&gt;&lt;br&gt;&lt;/font&gt;&lt;font style=&quot;text-align: center; direction: ltr; opacity: 1; color: rgb(51, 51, 51);&quot;&gt;&lt;font face=&quot;Arial&quot; color=&quot;#333333&quot;&gt;•&amp;nbsp;&lt;/font&gt;&lt;b style=&quot;color: light-dark(rgb(51, 51, 51), rgb(51, 51, 51)); font-family: Arial; letter-spacing: 0px;&quot;&gt;A&lt;/b&gt;&lt;/font&gt;&lt;font style=&quot;color: rgb(51, 51, 51); letter-spacing: 0px; text-align: center; font-family: Arial; direction: ltr; opacity: 1;&quot;&gt;ctivities&lt;br&gt;&lt;/font&gt;&lt;font style=&quot;text-align: center; direction: ltr; opacity: 1; color: rgb(51, 51, 51);&quot;&gt;&lt;font face=&quot;Arial&quot; color=&quot;#333333&quot;&gt;•&amp;nbsp;&lt;/font&gt;&lt;b style=&quot;color: light-dark(rgb(51, 51, 51), rgb(51, 51, 51)); font-family: Arial; letter-spacing: 0px;&quot;&gt;C&lt;/b&gt;&lt;/font&gt;&lt;font style=&quot;color: rgb(51, 51, 51); letter-spacing: 0px; text-align: center; font-family: Arial; direction: ltr; opacity: 1;&quot;&gt;ontributing&lt;br&gt;&lt;/font&gt;&lt;font style=&quot;text-align: center; direction: ltr; opacity: 1; color: rgb(51, 51, 51);&quot;&gt;&lt;font face=&quot;Arial&quot; color=&quot;#333333&quot;&gt;•&amp;nbsp;&lt;/font&gt;&lt;b style=&quot;color: light-dark(rgb(51, 51, 51), rgb(51, 51, 51)); font-family: Arial; letter-spacing: 0px;&quot;&gt;C&lt;/b&gt;&lt;/font&gt;&lt;font style=&quot;color: rgb(51, 51, 51); letter-spacing: 0px; text-align: center; font-family: Arial; direction: ltr; opacity: 1;&quot;&gt;omparisons&lt;br&gt;• Different&amp;nbsp;&lt;/font&gt;&lt;font style=&quot;color: rgb(51, 51, 51); letter-spacing: 0px; text-align: center; font-family: Arial; direction: ltr; opacity: 1;&quot;&gt;&lt;b&gt;E&lt;/b&gt;&lt;/font&gt;&lt;font style=&quot;color: rgb(51, 51, 51); letter-spacing: 0px; text-align: center; font-family: Arial; direction: ltr; opacity: 1;&quot;&gt;motions&lt;br&gt;&lt;/font&gt;&lt;font style=&quot;text-align: center; direction: ltr; opacity: 1; color: rgb(51, 51, 51);&quot;&gt;&lt;font face=&quot;Arial&quot; color=&quot;#333333&quot;&gt;•&amp;nbsp;&lt;/font&gt;&lt;b style=&quot;color: light-dark(rgb(51, 51, 51), rgb(51, 51, 51)); font-family: Arial; letter-spacing: 0px;&quot;&gt;P&lt;/b&gt;&lt;/font&gt;&lt;font style=&quot;color: rgb(51, 51, 51); letter-spacing: 0px; text-align: center; font-family: Arial; direction: ltr; opacity: 1;&quot;&gt;ushing Away&lt;br&gt;• Other&amp;nbsp;&lt;/font&gt;&lt;font style=&quot;color: rgb(51, 51, 51); letter-spacing: 0px; text-align: center; font-family: Arial; direction: ltr; opacity: 1;&quot;&gt;&lt;b&gt;T&lt;/b&gt;&lt;/font&gt;&lt;font style=&quot;color: rgb(51, 51, 51); letter-spacing: 0px; text-align: center; font-family: Arial; direction: ltr; opacity: 1;&quot;&gt;houghts&lt;br&gt;• Other&amp;nbsp;&lt;/font&gt;&lt;font style=&quot;color: rgb(51, 51, 51); letter-spacing: 0px; text-align: center; font-family: Arial; direction: ltr; opacity: 1;&quot;&gt;&lt;b&gt;S&lt;/b&gt;&lt;/font&gt;&lt;font style=&quot;color: rgb(51, 51, 51); letter-spacing: 0px; text-align: center; font-family: Arial; direction: ltr; opacity: 1;&quot;&gt;ensations&lt;/font&gt;&lt;/font&gt;&lt;font color=&quot;rgba(0, 0, 0, 0)&quot;&gt;&lt;span style=&quot;letter-spacing: 0px;&quot;&gt;&lt;b&gt;&lt;/b&gt;&lt;/span&gt;&lt;/font&gt;&lt;/font&gt;" style="rounded=1;whiteSpace=wrap;html=1;absoluteArcSize=1;arcSize=14;strokeWidth=2;align=left;fillColor=#dae8fc;strokeColor=#6c8ebf;verticalAlign=top;spacingLeft=2;spacingRight=0;fontFamily=Helvetica;fontSize=12;" parent="1" vertex="1">
          <mxGeometry x="639.5" y="480" width="131" height="132" as="geometry" />
        </mxCell>
        <mxCell id="8sUVVkPSZ1JqGQnIxmPN-128" value="&lt;font style=&quot;letter-spacing: 0px; color: rgb(51, 51, 51); direction: ltr; opacity: 1;&quot;&gt;&lt;font style=&quot;letter-spacing: 0px; text-align: center; font-size: 14.11px; font-family: Arial; color: rgb(51, 51, 51); direction: ltr; opacity: 1;&quot;&gt;&lt;b&gt;Self-Soothe&lt;/b&gt;&lt;/font&gt;&lt;font style=&quot;letter-spacing: 0px; text-align: center; font-size: 14.11px; font-family: Arial; color: rgb(51, 51, 51); direction: ltr; opacity: 1;&quot;&gt;&lt;br&gt;• Vision&lt;br&gt;• Hearing&lt;br&gt;• Smell&lt;br&gt;• Taste&lt;br&gt;• Touch&lt;/font&gt;&lt;b&gt;&lt;/b&gt;&lt;/font&gt;" style="rounded=1;whiteSpace=wrap;html=1;absoluteArcSize=1;arcSize=14;strokeWidth=2;align=left;fillColor=#dae8fc;strokeColor=#6c8ebf;verticalAlign=top;spacingLeft=2;fontFamily=Helvetica;fontSize=12;" parent="1" vertex="1">
          <mxGeometry x="790.5" y="480" width="131" height="132" as="geometry" />
        </mxCell>
        <mxCell id="8sUVVkPSZ1JqGQnIxmPN-126" value="&lt;font&gt;&lt;font style=&quot;letter-spacing: 0px; text-align: center; font-family: Arial; color: rgb(51, 51, 51); direction: ltr; opacity: 1;&quot;&gt;&lt;b&gt;Improve the Moment&lt;/b&gt;&lt;/font&gt;&lt;font style=&quot;letter-spacing: 0px; text-align: center; font-family: Arial; color: rgb(51, 51, 51); direction: ltr; opacity: 1;&quot;&gt;&lt;br&gt;• with Imagery&lt;br&gt;• with Meaning&lt;br&gt;• with Prayer&lt;br&gt;• with Relaxation&lt;br&gt;• Focus on One Thing&lt;br&gt;• Take a Brief Vacation&lt;br&gt;• Self-Encouragement&lt;/font&gt;&lt;/font&gt;" style="rounded=1;whiteSpace=wrap;html=1;absoluteArcSize=1;arcSize=14;strokeWidth=2;align=left;fillColor=#dae8fc;strokeColor=#6c8ebf;spacingLeft=2;fontFamily=Helvetica;fontSize=12;spacing=2;verticalAlign=top;" parent="1" vertex="1">
          <mxGeometry x="488.5" y="480" width="131" height="132" as="geometry" />
        </mxCell>
        <object label="&lt;font style=&quot;letter-spacing: 0px; font-size: 14.11px; color: rgb(51, 51, 51); direction: ltr; line-height: 14.11px; opacity: 1;&quot;&gt;&lt;i&gt;DBT Skills Training Handouts and Worksheets -&amp;nbsp;&lt;/i&gt;&lt;/font&gt;&lt;font style=&quot;letter-spacing: 0px; font-size: 14.11px; color: rgb(51, 51, 51); direction: ltr; line-height: 14.11px; opacity: 1;&quot;&gt;pg 325&lt;br&gt;Content via Fair Use - Dr. Marsha Linehan&lt;br&gt;Flowchart by Ariadne - v2.6 - %date{dd-mmm-yy}% - CC0&lt;/font&gt;" placeholders="1" id="Dbvg3vfzfJij5H3942FB-73">
          <mxCell style="rounded=1;whiteSpace=wrap;html=1;strokeWidth=2;strokeColor=#808080;" parent="1" vertex="1">
            <mxGeometry x="720" y="756" width="360" height="61.5" as="geometry" />
          </mxCell>
        </object>
        <object label="&lt;span style=&quot;color: rgb(51, 51, 51); font-family: Verdana; font-size: 11.29px;&quot;&gt;This chart and an editable template can be found at dbtwithariadne.com/crisis-survival&lt;/span&gt;" placeholders="1" id="Ncqw7H26rSRKd1QceQgZ-72">
          <mxCell style="rounded=1;whiteSpace=wrap;html=1;strokeWidth=2;strokeColor=#808080;" vertex="1" parent="1">
            <mxGeometry x="31.75" y="781.5" width="360" height="36" as="geometry" />
          </mxCell>
        </object>
        <mxCell id="Ncqw7H26rSRKd1QceQgZ-76" value="" style="edgeStyle=elbowEdgeStyle;rounded=1;orthogonalLoop=1;jettySize=auto;html=1;entryX=0;entryY=0.5;entryDx=0;entryDy=0;entryPerimeter=0;fontColor=#808080;strokeWidth=2;strokeColor=#808080;endArrow=none;endFill=1;exitX=0;exitY=0.5;exitDx=0;exitDy=0;exitPerimeter=0;curved=0;startFill=0;" edge="1" parent="1" source="8sUVVkPSZ1JqGQnIxmPN-131" target="Ncqw7H26rSRKd1QceQgZ-75">
          <mxGeometry relative="1" as="geometry">
            <Array as="points">
              <mxPoint x="24" y="492" />
            </Array>
            <mxPoint x="515" y="693" as="sourcePoint" />
            <mxPoint x="484" y="285" as="targetPoint" />
          </mxGeometry>
        </mxCell>
        <mxCell id="Ncqw7H26rSRKd1QceQgZ-75" value="&lt;div style=&quot;font-size: 1px&quot;&gt;&lt;p style=&quot;margin: 0px; text-indent: 0px; vertical-align: top; direction: ltr;&quot;&gt;&lt;span style=&quot;font-size: 12px; text-align: center; text-wrap: nowrap; background-color: rgb(255, 255, 255);&quot;&gt;Crisis not resolved ... STOPing to try a different skill&lt;/span&gt;&lt;br&gt;&lt;/p&gt;&lt;/div&gt;" style="rounded=1;whiteSpace=wrap;html=1;strokeWidth=2;strokeColor=#808080;align=left;spacingTop=0;spacing=7;spacingBottom=0;spacingLeft=0;" vertex="1" parent="1">
          <mxGeometry x="168" y="274.5" width="288.25" height="20" as="geometry" />
        </mxCell>
        <mxCell id="Ncqw7H26rSRKd1QceQgZ-80" value="&lt;div style=&quot;font-size: 1px&quot;&gt;&lt;p style=&quot;margin: 0px; text-indent: 0px; vertical-align: top; direction: ltr;&quot;&gt;&lt;span style=&quot;font-size: 12px; text-wrap: nowrap; background-color: rgb(255, 255, 255);&quot;&gt;Yes&lt;/span&gt;&lt;br&gt;&lt;/p&gt;&lt;/div&gt;" style="rounded=1;whiteSpace=wrap;html=1;strokeWidth=2;strokeColor=#808080;align=center;spacingTop=0;spacing=7;spacingBottom=0;spacingLeft=0;" vertex="1" parent="1">
          <mxGeometry x="564" y="189.5" width="31.5" height="20" as="geometry" />
        </mxCell>
        <mxCell id="Ncqw7H26rSRKd1QceQgZ-85" value="" style="edgeStyle=orthogonalEdgeStyle;rounded=1;orthogonalLoop=1;jettySize=auto;html=1;entryX=0;entryY=0.5;entryDx=0;entryDy=0;strokeColor=#808080;curved=0;endArrow=none;endFill=1;strokeWidth=2;startFill=0;exitX=1;exitY=0.5;exitDx=0;exitDy=0;exitPerimeter=0;" edge="1" parent="1" source="44" target="Ncqw7H26rSRKd1QceQgZ-78">
          <mxGeometry relative="1" as="geometry">
            <mxPoint x="622" y="285" as="sourcePoint" />
            <mxPoint x="744" y="285" as="targetPoint" />
          </mxGeometry>
        </mxCell>
        <mxCell id="Ncqw7H26rSRKd1QceQgZ-82" value="&lt;div style=&quot;font-size: 1px&quot;&gt;&lt;p style=&quot;margin: 0px; text-indent: 0px; vertical-align: top; direction: ltr;&quot;&gt;&lt;span style=&quot;font-size: 12px; text-wrap: nowrap; background-color: rgb(255, 255, 255);&quot;&gt;No&lt;/span&gt;&lt;br&gt;&lt;/p&gt;&lt;/div&gt;" style="rounded=1;whiteSpace=wrap;html=1;strokeWidth=2;strokeColor=#808080;align=center;spacingTop=0;spacing=7;spacingBottom=0;spacingLeft=0;" vertex="1" parent="1">
          <mxGeometry x="612" y="144" width="31.5" height="20" as="geometry" />
        </mxCell>
        <mxCell id="Ncqw7H26rSRKd1QceQgZ-83" value="&lt;div style=&quot;font-size: 1px&quot;&gt;&lt;p style=&quot;margin: 0px; text-indent: 0px; vertical-align: top; direction: ltr;&quot;&gt;&lt;span style=&quot;font-size: 12px; text-wrap: nowrap; background-color: rgb(255, 255, 255);&quot;&gt;No&lt;/span&gt;&lt;br&gt;&lt;/p&gt;&lt;/div&gt;" style="rounded=1;whiteSpace=wrap;html=1;strokeWidth=2;strokeColor=#808080;align=center;spacingTop=0;spacing=7;spacingBottom=0;spacingLeft=0;" vertex="1" parent="1">
          <mxGeometry x="469.5" y="683" width="31.5" height="20" as="geometry" />
        </mxCell>
        <mxCell id="Ncqw7H26rSRKd1QceQgZ-84" value="&lt;div style=&quot;font-size: 1px&quot;&gt;&lt;p style=&quot;margin: 0px; text-indent: 0px; vertical-align: top; direction: ltr;&quot;&gt;&lt;span style=&quot;font-size: 12px; text-wrap: nowrap; background-color: rgb(255, 255, 255);&quot;&gt;Yes&lt;/span&gt;&lt;br&gt;&lt;/p&gt;&lt;/div&gt;" style="rounded=1;whiteSpace=wrap;html=1;strokeWidth=2;strokeColor=#808080;align=center;spacingTop=0;spacing=7;spacingBottom=0;spacingLeft=0;" vertex="1" parent="1">
          <mxGeometry x="566" y="732" width="31.5" height="20" as="geometry" />
        </mxCell>
        <mxCell id="Ncqw7H26rSRKd1QceQgZ-78" value="&lt;div style=&quot;font-size: 1px&quot;&gt;&lt;p style=&quot;margin: 0px; text-indent: 0px; vertical-align: top; direction: ltr;&quot;&gt;&lt;span style=&quot;font-size: 12px; text-align: center; text-wrap: nowrap; background-color: rgb(255, 255, 255);&quot;&gt;I can&#39;t!&lt;/span&gt;&lt;br&gt;&lt;/p&gt;&lt;/div&gt;" style="rounded=1;whiteSpace=wrap;html=1;strokeWidth=2;strokeColor=#808080;align=left;spacingTop=0;spacing=7;spacingBottom=0;spacingLeft=0;" vertex="1" parent="1">
          <mxGeometry x="643.5" y="274.5" width="51" height="20" as="geometry" />
        </mxCell>
        <UserObject label="" tags="STOP" id="42">
          <mxCell style="vsdxID=35;strokeWidth=2;spacingTop=-3;spacingBottom=-3;spacingLeft=-3;spacingRight=-3;points=[];labelBackgroundColor=none;rounded=0;glass=0;shadow=0;fillColor=none;strokeColor=none;fillStyle=auto;textShadow=0;labelBorderColor=none;perimeterSpacing=1;container=0;rotation=0;aspect=fixed;fontColor=none;noLabel=1;" parent="1" vertex="1">
            <mxGeometry x="483.5" y="213.5" width="142" height="142" as="geometry" />
          </mxCell>
        </UserObject>
        <mxCell id="43" value="" style="vsdxID=36;fillColor=none;gradientColor=none;strokeColor=none;strokeWidth=2;spacingTop=-3;spacingBottom=-3;spacingLeft=-3;spacingRight=-3;points=[[0,0.5,0],[1,0.5,0],[0.5,1,0],[0.5,0,0]];labelBackgroundColor=none;rounded=1;rotation=0;aspect=fixed;fontColor=none;noLabel=1;" parent="42" vertex="1">
          <mxGeometry width="142" height="142" as="geometry" />
        </mxCell>
        <mxCell id="44" style="vsdxID=37;fillColor=#c92d39;gradientColor=none;shape=stencil(vVXbcoMgFPwaHnW4jKjPafID/QKmEmVqJYO2Mf36okctEJOHzOgb7FlZlwUOYoe2EheJKG47oz/lVRVdhdgbolQ1lTSqsyPEjogdztrI0ujvpoD5RVgmxSMiC/iGDGyKhfl4V78SMBwzkiZQgC+/9M+g2E91KN1gxug4PQHTLjRITEweEwZkcwuRiUJjQr31LCXLJkoketVGRneiU7rx1GthShlZuehci9IrtVcpLw5M3B+sVeNYsWK5rx6TZ3byLLQzI723G/NyeC8jPFvRXTWRxjn1TfwjM4XdhbIA21vJ0zCTOaQHfjgL/XD/jBG8emR38BIqTzG9GozdmswP2olqezeDmKe+RLVqKLm7Lkl4XYJju2zX9l6Cizorv/yM8TAZJ6sd3rEgmCWpB8HQNAxmRlbfeL6bkWe9xQ7GFgbNTdU1dEC3HrY8C0G7ZMc/);strokeColor=#ffffff;strokeWidth=2;spacingTop=-3;spacingBottom=-3;spacingLeft=-3;spacingRight=-3;points=[[0,0.5,0],[1,0.5,0],[0.5,1,0],[0.5,0,0]];labelBackgroundColor=none;rounded=1;html=1;whiteSpace=wrap;rotation=0;aspect=fixed;" parent="43" vertex="1">
          <mxGeometry width="142" height="142" as="geometry" />
        </mxCell>
        <mxCell id="45" value="&lt;div style=&quot;font-size: 1px&quot;&gt;&lt;p style=&quot;text-align:center;margin-left:0;margin-right:0;margin-top:0px;margin-bottom:0px;text-indent:0;vertical-align:middle;direction:ltr;&quot;&gt;&lt;font style=&quot;font-size: 15.52px; font-family: Arial; direction: ltr; letter-spacing: 0px; line-height: 100%; opacity: 1;&quot;&gt;&lt;b&gt;S&lt;/b&gt;&lt;/font&gt;&lt;font style=&quot;font-size: 14.11px; font-family: Arial; direction: ltr; letter-spacing: 0px; line-height: 100%; opacity: 1;&quot;&gt;top&lt;br&gt;&lt;/font&gt;&lt;font style=&quot;font-size: 15.52px; font-family: Arial; direction: ltr; letter-spacing: 0px; line-height: 100%; opacity: 1;&quot;&gt;&lt;b&gt;T&lt;/b&gt;&lt;/font&gt;&lt;font style=&quot;font-size: 14.11px; font-family: Arial; direction: ltr; letter-spacing: 0px; line-height: 100%; opacity: 1;&quot;&gt;ake A Step Back&lt;br&gt;&lt;/font&gt;&lt;font style=&quot;font-size: 15.52px; font-family: Arial; direction: ltr; letter-spacing: 0px; line-height: 100%; opacity: 1;&quot;&gt;&lt;b&gt;O&lt;/b&gt;&lt;/font&gt;&lt;font style=&quot;font-size: 14.11px; font-family: Arial; direction: ltr; letter-spacing: 0px; line-height: 100%; opacity: 1;&quot;&gt;bserve&lt;br&gt;&lt;/font&gt;&lt;font style=&quot;font-size: 15.52px; font-family: Arial; direction: ltr; letter-spacing: 0px; line-height: 100%; opacity: 1;&quot;&gt;&lt;b&gt;P&lt;/b&gt;&lt;/font&gt;&lt;font style=&quot;font-size: 14.11px; font-family: Arial; direction: ltr; letter-spacing: 0px; line-height: 100%; opacity: 1;&quot;&gt;roceed Mindfully&lt;/font&gt;&lt;/p&gt;&lt;/div&gt;" style="text;vsdxID=36;strokeWidth=2;spacingTop=-3;spacingBottom=-3;spacingLeft=-3;spacingRight=-3;points=[[0,0.5,0],[1,0.5,0],[0.5,1,0],[0.5,0,0]];labelBackgroundColor=none;rounded=1;html=1;whiteSpace=wrap;verticalAlign=middle;align=center;overflow=width;;html=1;rotation=0;aspect=fixed;fontColor=#FFFFFF;" parent="43" vertex="1">
          <mxGeometry x="3.549999999999997" y="3.549999999999997" width="134.9" height="134.9" as="geometry" />
        </mxCell>
      </root>
    </mxGraphModel>
  </diagram>
</mxfile>
